<svg width="12=" height="12" viewBox="0 0 32 32" fill="none" xmlns="http://www.w3.org/2000/svg">
<rect width="32" height="32" rx="6" fill="#3563E9"/>
<path d="M20.8262 11.0762C21.0551 10.8583 21.3597 10.7378 21.6758 10.7402C21.9918 10.7426 22.2946 10.8677 22.5202 11.0891C22.7458 11.3104 22.8765 11.6108 22.8849 11.9267C22.8932 12.2427 22.7785 12.5495 22.565 12.7825L16.0812 20.8912C15.9697 21.0113 15.8352 21.1077 15.6856 21.1746C15.536 21.2415 15.3744 21.2775 15.2106 21.2806C15.0468 21.2836 14.884 21.2536 14.7321 21.1922C14.5801 21.1309 14.4421 21.0396 14.3262 20.9237L10.0265 16.624C9.90671 16.5124 9.81067 16.3779 9.74406 16.2284C9.67745 16.0789 9.64163 15.9175 9.63874 15.7538C9.63585 15.5902 9.66596 15.4277 9.72725 15.2759C9.78855 15.1241 9.87978 14.9863 9.99551 14.8706C10.1112 14.7548 10.2491 14.6636 10.4009 14.6023C10.5526 14.541 10.7152 14.5109 10.8788 14.5138C11.0424 14.5167 11.2038 14.5525 11.3533 14.6191C11.5028 14.6857 11.6374 14.7818 11.749 14.9015L15.1517 18.3026L20.7953 11.112C20.8055 11.0995 20.8163 11.0875 20.8278 11.0762H20.8262Z" fill="white"/>
</svg>
