<svg width="24" height="24" viewBox="0 0 14 14" fill="none" xmlns="http://www.w3.org/2000/svg">
<path d="M13.0317 5.44252L11.8651 4.85919C11.6492 4.75419 11.3809 4.83585 11.2759 5.05169C11.1651 5.27335 11.2526 5.53585 11.4684 5.64085L12.3959 6.10169V8.89585L10.2084 8.90169V2.91669C10.2084 1.75002 9.42675 1.16669 8.45841 1.16669H3.79175C2.82341 1.16669 2.04175 1.75002 2.04175 2.91669V12.3959H1.16675C0.927581 12.3959 0.729248 12.5942 0.729248 12.8334C0.729248 13.0725 0.927581 13.2709 1.16675 13.2709H11.0834C11.3226 13.2709 11.5209 13.0725 11.5209 12.8334C11.5209 12.5942 11.3226 12.3959 11.0834 12.3959H10.2084V9.77669L12.8334 9.77085C13.0784 9.77085 13.2709 9.57252 13.2709 9.33335V5.83335C13.2709 5.67002 13.1776 5.51835 13.0317 5.44252ZM3.50008 4.01919C3.50008 3.20835 3.99591 2.91669 4.60258 2.91669H7.65341C8.25425 2.91669 8.75008 3.20835 8.75008 4.01919V4.73669C8.75008 5.54169 8.25425 5.83335 7.64758 5.83335H4.60258C3.99591 5.83335 3.50008 5.54169 3.50008 4.73085V4.01919ZM3.79175 7.14585H5.54175C5.78091 7.14585 5.97925 7.34419 5.97925 7.58335C5.97925 7.82252 5.78091 8.02085 5.54175 8.02085H3.79175C3.55258 8.02085 3.35425 7.82252 3.35425 7.58335C3.35425 7.34419 3.55258 7.14585 3.79175 7.14585Z" fill="#90A3BF"/>
</svg>
