<svg width="24" height="24" viewBox="0 0 14 14" fill="none" xmlns="http://www.w3.org/2000/svg">
<path d="M5.25008 1.16669C3.72175 1.16669 2.47925 2.40919 2.47925 3.93752C2.47925 5.43669 3.65175 6.65002 5.18008 6.70252C5.22675 6.69669 5.27341 6.69669 5.30841 6.70252C5.32008 6.70252 5.32591 6.70252 5.33758 6.70252C5.34341 6.70252 5.34341 6.70252 5.34925 6.70252C6.84258 6.65002 8.01508 5.43669 8.02091 3.93752C8.02091 2.40919 6.77841 1.16669 5.25008 1.16669Z" fill="#90A3BF"/>
<path d="M8.21331 8.25418C6.58581 7.16918 3.93164 7.16918 2.29248 8.25418C1.55164 8.75001 1.14331 9.42085 1.14331 10.1383C1.14331 10.8558 1.55164 11.5208 2.28664 12.0108C3.10331 12.5592 4.17664 12.8333 5.24998 12.8333C6.32331 12.8333 7.39664 12.5592 8.21331 12.0108C8.94831 11.515 9.35664 10.85 9.35664 10.1267C9.35081 9.40918 8.94831 8.74418 8.21331 8.25418Z" fill="#90A3BF"/>
<path d="M11.6607 4.28168C11.754 5.41335 10.949 6.40502 9.83488 6.53918C9.82905 6.53918 9.82905 6.53918 9.82321 6.53918H9.80571C9.77071 6.53918 9.73571 6.53918 9.70655 6.55085C9.14071 6.58002 8.62155 6.39918 8.23071 6.06668C8.83155 5.53002 9.17571 4.72502 9.10571 3.85002C9.06488 3.37752 8.90155 2.94585 8.65655 2.57835C8.87821 2.46752 9.13488 2.39752 9.39738 2.37418C10.5407 2.27502 11.5615 3.12668 11.6607 4.28168Z" fill="#90A3BF"/>
<path d="M12.8276 9.67751C12.7809 10.2433 12.4192 10.7333 11.8126 11.0658C11.2292 11.3867 10.4942 11.5383 9.76506 11.5208C10.1851 11.1417 10.4301 10.6692 10.4767 10.1675C10.5351 9.44417 10.1909 8.75001 9.50256 8.19584C9.11172 7.88667 8.65672 7.64167 8.16089 7.46084C9.45006 7.08751 11.0717 7.33834 12.0692 8.14334C12.6059 8.57501 12.8801 9.11751 12.8276 9.67751Z" fill="#90A3BF"/>
</svg>
